<svg xmlns="http://www.w3.org/2000/svg" viewBox="0 0 1200 400" width="1200" height="400">
  <defs>
    <linearGradient id="bg" x1="0%" y1="0%" x2="100%" y2="100%">
      <stop offset="0%" style="stop-color:#0a0a0a"/>
      <stop offset="50%" style="stop-color:#111111"/>
      <stop offset="100%" style="stop-color:#0d0d0d"/>
    </linearGradient>
    <radialGradient id="glow1" cx="16%" cy="55%" r="28%">
      <stop offset="0%" style="stop-color:#E74C3C;stop-opacity:0.15"/>
      <stop offset="100%" style="stop-color:#E74C3C;stop-opacity:0"/>
    </radialGradient>
    <radialGradient id="glow2" cx="28%" cy="30%" r="18%">
      <stop offset="0%" style="stop-color:#E74C3C;stop-opacity:0.08"/>
      <stop offset="100%" style="stop-color:#E74C3C;stop-opacity:0"/>
    </radialGradient>
  </defs>
  <rect width="1200" height="400" fill="url(#bg)"/>
  <rect width="1200" height="400" fill="url(#glow1)"/>
  <rect width="1200" height="400" fill="url(#glow2)"/>

  <circle cx="345" cy="191" r="2.9" fill="white" opacity="0.5"/>
  <circle cx="216" cy="371" r="1.9" fill="white" opacity="0.7"/>
  <circle cx="261" cy="306" r="3.2" fill="white" opacity="0.8"/>
  <circle cx="300" cy="356" r="2.6" fill="white" opacity="0.5"/>
  <circle cx="198" cy="257" r="1.7" fill="white" opacity="0.3"/>
  <circle cx="306" cy="368" r="2.8" fill="white" opacity="0.5"/>
  <circle cx="182" cy="82" r="1.6" fill="white" opacity="0.7"/>
  <circle cx="146" cy="262" r="2.5" fill="white" opacity="0.6"/>
  <circle cx="176" cy="172" r="3.5" fill="white" opacity="0.4"/>
  <circle cx="379" cy="141" r="2.6" fill="white" opacity="0.5"/>
  <circle cx="57" cy="60" r="2.6" fill="white" opacity="0.6"/>
  <circle cx="255" cy="91" r="2.2" fill="white" opacity="0.4"/>
  <circle cx="134" cy="221" r="1.8" fill="white" opacity="0.8"/>
  <circle cx="197" cy="82" r="2.9" fill="white" opacity="0.5"/>
  <circle cx="295" cy="313" r="2.8" fill="white" opacity="0.7"/>
  <circle cx="92" cy="141" r="1.9" fill="white" opacity="0.8"/>
  <circle cx="365" cy="238" r="2.0" fill="white" opacity="0.4"/>
  <circle cx="267" cy="91" r="2.0" fill="white" opacity="0.7"/>
  <circle cx="390" cy="181" r="2.8" fill="white" opacity="0.4"/>
  <circle cx="32" cy="56" r="2.1" fill="white" opacity="0.6"/>
  <circle cx="438" cy="301" r="1.9" fill="white" opacity="0.6"/>
  <circle cx="232" cy="177" r="1.9" fill="white" opacity="0.4"/>
  <circle cx="415" cy="338" r="3.0" fill="white" opacity="0.5"/>
  <circle cx="277" cy="250" r="3.4" fill="white" opacity="0.6"/>
  <circle cx="417" cy="48" r="2.9" fill="white" opacity="0.3"/>
  <circle cx="208" cy="89" r="2.2" fill="white" opacity="0.4"/>
  <circle cx="315" cy="268" r="3.5" fill="white" opacity="0.8"/>
  <circle cx="150" cy="285" r="2.3" fill="white" opacity="0.8"/>
  <circle cx="236" cy="53" r="2.7" fill="white" opacity="0.6"/>
  <circle cx="83" cy="225" r="2.3" fill="white" opacity="0.5"/>
  <circle cx="404" cy="52" r="3.3" fill="white" opacity="0.5"/>
  <circle cx="103" cy="127" r="1.7" fill="white" opacity="0.7"/>
  <circle cx="382" cy="327" r="2.4" fill="white" opacity="0.3"/>
  <circle cx="417" cy="209" r="2.8" fill="white" opacity="0.5"/>
  <circle cx="191" cy="362" r="3.2" fill="white" opacity="0.7"/>
  <circle cx="208" cy="208" r="2.4" fill="white" opacity="0.8"/>
  <circle cx="213" cy="329" r="2.8" fill="white" opacity="0.8"/>
  <circle cx="420" cy="156" r="2.0" fill="white" opacity="0.6"/>
  <circle cx="93" cy="266" r="2.2" fill="white" opacity="0.6"/>
  <circle cx="83" cy="222" r="2.1" fill="white" opacity="0.4"/>
  <circle cx="94" cy="69" r="2.7" fill="white" opacity="0.7"/>
  <circle cx="239" cy="176" r="3.2" fill="white" opacity="0.5"/>
  <circle cx="365" cy="37" r="1.9" fill="white" opacity="0.3"/>
  <circle cx="331" cy="230" r="2.3" fill="white" opacity="0.7"/>
  <circle cx="131" cy="141" r="2.6" fill="white" opacity="0.3"/>
  <circle cx="343" cy="56" r="2.3" fill="white" opacity="0.4"/>
  <circle cx="131" cy="311" r="2.5" fill="white" opacity="0.3"/>
  <circle cx="78" cy="84" r="1.7" fill="white" opacity="0.3"/>
  <circle cx="162" cy="369" r="3.2" fill="white" opacity="0.7"/>
  <circle cx="284" cy="313" r="1.8" fill="white" opacity="0.7"/>

  <line x1="115" y1="357" x2="166" y2="349" stroke="white" stroke-width="0.5" opacity="0.12"/>
  <line x1="180" y1="291" x2="252" y2="327" stroke="white" stroke-width="0.5" opacity="0.12"/>
  <line x1="390" y1="206" x2="446" y2="167" stroke="white" stroke-width="0.5" opacity="0.12"/>
  <line x1="412" y1="192" x2="483" y2="212" stroke="white" stroke-width="0.5" opacity="0.12"/>
  <line x1="275" y1="183" x2="317" y2="146" stroke="white" stroke-width="0.5" opacity="0.12"/>
  <line x1="189" y1="290" x2="248" y2="329" stroke="white" stroke-width="0.5" opacity="0.12"/>
  <line x1="65" y1="114" x2="125" y2="82" stroke="white" stroke-width="0.5" opacity="0.12"/>
  <line x1="64" y1="318" x2="120" y2="360" stroke="white" stroke-width="0.5" opacity="0.12"/>
  <line x1="64" y1="90" x2="124" y2="92" stroke="white" stroke-width="0.5" opacity="0.12"/>
  <line x1="344" y1="218" x2="423" y2="241" stroke="white" stroke-width="0.5" opacity="0.12"/>
  <line x1="247" y1="234" x2="323" y2="251" stroke="white" stroke-width="0.5" opacity="0.12"/>
  <line x1="334" y1="91" x2="377" y2="116" stroke="white" stroke-width="0.5" opacity="0.12"/>

  <line x1="480" y1="50" x2="480" y2="350" stroke="white" stroke-width="0.5" opacity="0.12"/>

  <text x="540" y="120" font-family="'SF Pro Display','Helvetica Neue',Arial,sans-serif" font-size="72" font-weight="800" fill="white" letter-spacing="6">YOLO TRAINER</text>
  <text x="540" y="185" font-family="'Noto Sans SC','PingFang SC','Microsoft YaHei',sans-serif" font-size="22" font-weight="500" fill="white" opacity="0.9" letter-spacing="3">YOLO 模型训练平台</text>
  <text x="540" y="225" font-family="'Noto Sans SC','PingFang SC','Microsoft YaHei',sans-serif" font-size="14" font-weight="300" fill="white" opacity="0.5" letter-spacing="1.5">模型训练 · 版本控制 · 数据标注 · 自动测试 · Vue3+FastAPI</text>
  <text x="540" y="275" font-family="'SF Mono','Fira Code','Consolas',monospace" font-size="12" fill="white" opacity="0.4" letter-spacing="1.5">Vue3 · FastAPI · PyTorch</text>
  <line x1="540" y1="315" x2="1170" y2="315" stroke="white" stroke-width="0.5" opacity="0.1"/>
  <text x="540" y="345" font-family="'SF Mono','Fira Code','Consolas',monospace" font-size="10" fill="white" opacity="0.3" letter-spacing="1">YOLO · COMPUTER VISION · DEEP LEARNING · PYTORCH</text>
</svg>